<svg id="visual" viewBox="0 0 1920 1200" width="1920" height="1200" xmlns="http://www.w3.org/2000/svg" xmlns:xlink="http://www.w3.org/1999/xlink" version="1.1"><rect width="1920" height="1200" fill="#001829"></rect><g><g transform="translate(1264 1081)"><path d="M0 -231.4L200.4 -115.7L200.4 115.7L0 231.4L-200.4 115.7L-200.4 -115.7Z" stroke="#009473" fill="none" stroke-width="2"></path></g><g transform="translate(1558 308)"><path d="M0 -123L106.5 -61.5L106.5 61.5L0 123L-106.5 61.5L-106.5 -61.5Z" stroke="#009473" fill="none" stroke-width="2"></path></g><g transform="translate(596 1011)"><path d="M0 -56L48.5 -28L48.5 28L0 56L-48.5 28L-48.5 -28Z" stroke="#009473" fill="none" stroke-width="2"></path></g><g transform="translate(404 460)"><path d="M0 -69L59.8 -34.5L59.8 34.5L0 69L-59.8 34.5L-59.8 -34.5Z" stroke="#009473" fill="none" stroke-width="2"></path></g><g transform="translate(27 178)"><path d="M0 -221L191.4 -110.5L191.4 110.5L0 221L-191.4 110.5L-191.4 -110.5Z" stroke="#009473" fill="none" stroke-width="2"></path></g><g transform="translate(1025 547)"><path d="M0 -164L142 -82L142 82L0 164L-142 82L-142 -82Z" stroke="#009473" fill="none" stroke-width="2"></path></g><g transform="translate(673 63)"><path d="M0 -144L124.7 -72L124.7 72L0 144L-124.7 72L-124.7 -72Z" stroke="#009473" fill="none" stroke-width="2"></path></g><g transform="translate(1899 764)"><path d="M0 -114L98.7 -57L98.7 57L0 114L-98.7 57L-98.7 -57Z" stroke="#009473" fill="none" stroke-width="2"></path></g><g transform="translate(73 1186)"><path d="M0 -155L134.2 -77.5L134.2 77.5L0 155L-134.2 77.5L-134.2 -77.5Z" stroke="#009473" fill="none" stroke-width="2"></path></g></g></svg>