<?xml version="1.0" encoding="UTF-8" standalone="no"?>
<svg
   xmlns:dc="http://purl.org/dc/elements/1.1/"
   xmlns:cc="http://creativecommons.org/ns#"
   xmlns:rdf="http://www.w3.org/1999/02/22-rdf-syntax-ns#"
   xmlns:svg="http://www.w3.org/2000/svg"
   xmlns="http://www.w3.org/2000/svg"
   viewBox="0 0 1600 1066.6667"
   height="1066.6667"
   width="1600"
   xml:space="preserve"
   id="svg2"
   version="1.1"><metadata
     id="metadata8"><rdf:RDF><cc:Work
         rdf:about=""><dc:format>image/svg+xml</dc:format><dc:type
           rdf:resource="http://purl.org/dc/dcmitype/StillImage" /></cc:Work></rdf:RDF></metadata><defs
     id="defs6" /><g
     transform="matrix(1.3333333,0,0,-1.3333333,0,1066.6667)"
     id="g10"><g
       transform="scale(0.1)"
       id="g12"><path
         id="path14"
         style="fill:#111c2e;fill-opacity:1;fill-rule:nonzero;stroke:none"
         d="M 12000,0 H 0 V 8000 H 12000 V 0" /><path
         id="path16"
         style="fill:#1d2840;fill-opacity:1;fill-rule:nonzero;stroke:none"
         d="M 12277.7,4402.09 H 11005 l -636.3,-1102.2 636.3,-1102.18 h 1272.7 l 636.4,1102.18 -636.4,1102.2" /><path
         id="path18"
         style="fill:#203054;fill-opacity:1;fill-rule:nonzero;stroke:none"
         d="M 10198.1,7303.98 H 8522.71 L 7685,5853.04 8522.71,4402.09 h 1675.39 l 837.7,1450.95 -837.7,1450.94" /><path
         id="path20"
         style="fill:#1a2140;fill-opacity:1;fill-rule:nonzero;stroke:none"
         d="M 9128.26,9157.03 H 7452.85 l -837.7,-1450.95 837.7,-1450.95 h 1675.41 l 837.71,1450.95 -837.71,1450.95" /><path
         id="path22"
         style="fill:#1a2140;fill-opacity:1;fill-rule:nonzero;stroke:none"
         d="M 12479.1,7303.98 H 10803.7 L 9965.97,5853.04 10803.7,4402.09 h 1675.4 l 837.7,1450.95 -837.7,1450.94" /><path
         id="path24"
         style="fill:#343b57;fill-opacity:1;fill-rule:nonzero;stroke:none"
         d="m 10444.7,4025 h 1041 l 520.5,901.52 -520.5,901.52 h -1041 l -520.5,-901.52 z m 1069.9,-50 h -1098.8 l -549.34,951.52 549.34,951.52 h 1098.8 l 549.3,-951.52 -549.3,-951.52" /><path
         id="path26"
         style="fill:#343b57;fill-opacity:1;fill-rule:nonzero;stroke:none"
         d="m 12049.5,3098.49 h 1041 l 520.4,901.51 -520.4,901.52 h -1041 L 11529,4000 Z m 1069.8,-50 h -1098.7 l -549.4,951.51 549.4,951.52 h 1098.7 l 549.4,-951.52 -549.4,-951.51" /><path
         id="path28"
         style="fill:#343b57;fill-opacity:1;fill-rule:nonzero;stroke:none"
         d="M 8839.92,3098.49 H 9880.9 l 520.5,901.51 -520.5,901.52 H 8839.92 L 8319.42,4000 Z m 1069.85,-50 H 8811.05 L 8261.69,4000 8811.05,4951.52 H 9909.77 L 10459.1,4000 9909.77,3048.49" /><path
         id="path30"
         style="fill:#343b57;fill-opacity:1;fill-rule:nonzero;stroke:none"
         d="m 7235.14,4025 h 1040.97 l 520.5,901.52 -520.5,901.52 H 7235.14 l -520.5,-901.52 z m 1069.84,-50 H 7206.26 l -549.36,951.52 549.36,951.52 H 8304.98 L 8854.35,4926.52 8304.98,3975" /><path
         id="path32"
         style="fill:#343b57;fill-opacity:1;fill-rule:nonzero;stroke:none"
         d="M 8839.92,4951.52 H 9880.9 l 520.5,901.52 -520.5,901.52 H 8839.92 l -520.5,-901.52 z m 1069.85,-50 H 8811.05 l -549.36,951.52 549.36,951.52 h 1098.72 l 549.33,-951.52 -549.33,-951.52" /><path
         id="path34"
         style="fill:#343b57;fill-opacity:1;fill-rule:nonzero;stroke:none"
         d="M 8839.92,6804.56 H 9880.9 l 520.5,901.52 -520.5,901.52 H 8839.92 l -520.5,-901.52 z m 1069.85,-50 H 8811.05 l -549.36,951.52 549.36,951.52 h 1098.72 l 549.33,-951.52 -549.33,-951.52" /><path
         id="path36"
         style="fill:#343b57;fill-opacity:1;fill-rule:nonzero;stroke:none"
         d="M 8839.92,-607.598 H 9880.9 l 520.5,901.528 -520.5,901.51 H 8839.92 l -520.5,-901.51 z m 1069.85,-50 H 8811.05 l -549.36,951.528 549.36,951.51 h 1098.72 l 549.33,-951.51 -549.33,-951.528" /><path
         id="path38"
         style="fill:#343b57;fill-opacity:1;fill-rule:nonzero;stroke:none"
         d="m 4025.57,318.93 h 1040.98 l 520.5,901.51 -520.5,901.52 H 4025.57 l -520.49,-901.52 z m 1069.85,-50 H 3996.7 l -549.36,951.51 549.36,951.52 h 1098.72 l 549.36,-951.52 -549.36,-951.51" /><path
         id="path40"
         style="fill:#343b57;fill-opacity:1;fill-rule:nonzero;stroke:none"
         d="M 2420.79,3098.49 H 3461.78 L 3982.27,4000 3461.78,4901.52 H 2420.79 L 1900.3,4000 Z m 1069.85,-50 H 2391.92 L 1842.56,4000 2391.92,4951.52 H 3490.64 L 4040,4000 3490.64,3048.49" /><path
         id="path42"
         style="fill:#343b57;fill-opacity:1;fill-rule:nonzero;stroke:none"
         d="m 2420.79,1245.44 h 1040.99 l 520.49,901.52 -520.49,901.53 H 2420.79 L 1900.3,2146.96 Z m 1069.85,-50 H 2391.92 l -549.36,951.52 549.36,951.53 H 3490.64 L 4040,2146.96 3490.64,1195.44" /><path
         id="path44"
         style="fill:#343b57;fill-opacity:1;fill-rule:nonzero;stroke:none"
         d="m 4025.57,7731.08 h 1040.98 l 520.5,901.52 -520.5,901.52 H 4025.57 L 3505.08,8632.6 Z m 1069.85,-50 H 3996.7 l -549.36,951.52 549.36,951.52 h 1098.72 l 549.36,-951.52 -549.36,-951.52" /><path
         id="path46"
         style="fill:#343b57;fill-opacity:1;fill-rule:nonzero;stroke:none"
         d="M -788.77,1245.44 H 252.211 l 520.492,901.52 -520.492,901.53 H -788.77 l -520.49,-901.53 z m 1069.848,-50 H -817.637 L -1367,2146.96 -817.637,3098.49 H 281.078 l 549.36,-951.53 -549.36,-951.52" /><path
         id="path48"
         style="fill:#343b57;fill-opacity:1;fill-rule:nonzero;stroke:none"
         d="m 4025.57,-1534.11 h 1040.98 l 520.5,901.512 -520.5,901.528 H 4025.57 l -520.49,-901.528 z m 1069.85,-50 H 3996.7 l -549.36,951.512 549.36,951.528 h 1098.72 l 549.36,-951.528 -549.36,-951.512" /><path
         id="path50"
         style="fill:#343b57;fill-opacity:1;fill-rule:nonzero;stroke:none"
         d="m 2420.79,-607.598 h 1040.99 l 520.49,901.528 -520.49,901.51 H 2420.79 L 1900.3,293.93 Z m 1069.85,-50 H 2391.92 l -549.36,951.528 549.36,951.51 H 3490.64 L 4040,293.93 3490.64,-657.598" /><path
         id="path52"
         style="fill:#203054;fill-opacity:1;fill-rule:nonzero;stroke:none"
         d="M 3093.33,754.352 H 1417.92 L 580.219,-696.598 1417.92,-2147.5 h 1675.41 l 837.71,1450.902 -837.71,1450.95" /><path
         id="path54"
         style="fill:#1a2140;fill-opacity:1;fill-rule:nonzero;stroke:none"
         d="M 1738.59,3513.41 H 1230.61 L 976.609,3073.48 1230.61,2633.54 h 507.98 l 254,439.94 -254,439.93" /><path
         id="path56"
         style="fill:#203054;fill-opacity:1;fill-rule:nonzero;stroke:none"
         d="m 9810.41,3590.69 h -900 l -450,-779.42 450,-779.42 h 900 l 449.99,779.42 -449.99,779.42" /><path
         id="path58"
         style="fill:#1d2840;fill-opacity:1;fill-rule:nonzero;stroke:none"
         d="M 837.703,6938.26 H -837.703 L -1675.41,5487.31 -837.703,4036.37 H 837.703 L 1675.41,5487.31 837.703,6938.26" /><path
         id="path60"
         style="fill:#1a2140;fill-opacity:1;fill-rule:nonzero;stroke:none"
         d="M -294.836,2146.95 H 566.07 L 996.523,1401.39 566.07,655.82 h -860.906 l -430.453,745.57 430.453,745.56" /></g></g></svg>